<svg xmlns="http://www.w3.org/2000/svg" xmlns:xlink="http://www.w3.org/1999/xlink" width="500" zoomAndPan="magnify" viewBox="0 0 375 374.999991" height="500" preserveAspectRatio="xMidYMid meet" version="1.2"><defs/><g id="adcaf16e66"><rect x="0" width="375" y="0" height="374.999991" style="fill:#ffffff;fill-opacity:1;stroke:none;"/><rect x="0" width="375" y="0" height="374.999991" style="fill:#e4e2dd;fill-opacity:1;stroke:none;"/><g style="fill:#db4a2b;fill-opacity:1;"><g transform="translate(125.666627, 208.124986)"><path style="stroke:none" d="M 4.203125 0 L 4.203125 -45.53125 L 16.703125 -45.53125 L 16.703125 0 Z M 4.203125 0 "/></g></g><g style="fill:#db4a2b;fill-opacity:1;"><g transform="translate(142.995933, 208.124986)"><path style="stroke:none" d="M 20.15625 -33.90625 C 25.21875 -33.90625 29.335938 -33.054688 32.515625 -31.359375 C 35.703125 -29.671875 37.296875 -26.921875 37.296875 -23.109375 L 37.296875 -10.171875 C 37.296875 -9.460938 37.460938 -8.875 37.796875 -8.40625 C 38.140625 -7.945312 38.644531 -7.71875 39.3125 -7.71875 L 41.578125 -7.71875 L 41.578125 -0.5 C 41.453125 -0.414062 41.125 -0.28125 40.59375 -0.09375 C 40.070312 0.09375 39.328125 0.28125 38.359375 0.46875 C 37.398438 0.65625 36.296875 0.75 35.046875 0.75 C 32.609375 0.75 30.601562 0.382812 29.03125 -0.34375 C 27.46875 -1.070312 26.394531 -2.085938 25.8125 -3.390625 C 24.21875 -2.128906 22.4375 -1.125 20.46875 -0.375 C 18.5 0.375 16.195312 0.75 13.5625 0.75 C 5.78125 0.75 1.890625 -2.347656 1.890625 -8.546875 C 1.890625 -11.765625 2.753906 -14.222656 4.484375 -15.921875 C 6.222656 -17.617188 8.722656 -18.78125 11.984375 -19.40625 C 15.253906 -20.03125 19.53125 -20.34375 24.8125 -20.34375 L 24.8125 -21.984375 C 24.8125 -23.273438 24.359375 -24.253906 23.453125 -24.921875 C 22.554688 -25.597656 21.394531 -25.9375 19.96875 -25.9375 C 18.664062 -25.9375 17.546875 -25.703125 16.609375 -25.234375 C 15.671875 -24.773438 15.203125 -24.046875 15.203125 -23.046875 L 15.203125 -22.796875 L 2.890625 -22.796875 C 2.847656 -23.003906 2.828125 -23.296875 2.828125 -23.671875 C 2.828125 -26.816406 4.320312 -29.304688 7.3125 -31.140625 C 10.3125 -32.984375 14.59375 -33.90625 20.15625 -33.90625 Z M 24.8125 -14.4375 C 21.25 -14.4375 18.617188 -14.050781 16.921875 -13.28125 C 15.222656 -12.507812 14.375 -11.472656 14.375 -10.171875 C 14.375 -8.078125 15.800781 -7.03125 18.65625 -7.03125 C 20.28125 -7.03125 21.710938 -7.46875 22.953125 -8.34375 C 24.191406 -9.226562 24.8125 -10.320312 24.8125 -11.625 Z M 24.8125 -14.4375 "/></g></g><g style="fill:#db4a2b;fill-opacity:1;"><g transform="translate(181.296788, 208.124986)"><path style="stroke:none" d="M 26.875 -33.15625 L 41.453125 -33.15625 L 29.203125 -19.78125 L 41.765625 0 L 27.5625 0 L 20.59375 -11.359375 L 16.265625 -7.15625 L 16.265625 0 L 3.765625 0 L 3.765625 -45.59375 L 16.265625 -45.59375 L 16.265625 -20.46875 Z M 26.875 -33.15625 "/></g></g><g style="fill:#db4a2b;fill-opacity:1;"><g transform="translate(219.597643, 208.124986)"><path style="stroke:none" d="M 16.265625 -29.703125 C 17.609375 -31.046875 19.175781 -32.082031 20.96875 -32.8125 C 22.769531 -33.539062 24.65625 -33.90625 26.625 -33.90625 C 30.476562 -33.90625 33.367188 -32.835938 35.296875 -30.703125 C 37.222656 -28.566406 38.1875 -25.488281 38.1875 -21.46875 L 38.1875 0 L 25.6875 0 L 25.6875 -19.96875 C 25.6875 -21.394531 25.316406 -22.535156 24.578125 -23.390625 C 23.847656 -24.242188 22.8125 -24.671875 21.46875 -24.671875 C 19.925781 -24.671875 18.671875 -24.171875 17.703125 -23.171875 C 16.742188 -22.171875 16.265625 -20.9375 16.265625 -19.46875 L 16.265625 0 L 3.765625 0 L 3.765625 -45.53125 L 16.265625 -45.53125 Z M 16.265625 -29.703125 "/></g></g><g style="fill:#db4a2b;fill-opacity:1;"><g transform="translate(223.374159, 218.035298)"><path style="stroke:none" d="M 4 -7.40625 C 4.632812 -7.40625 5.144531 -7.300781 5.53125 -7.09375 C 5.914062 -6.882812 6.191406 -6.597656 6.359375 -6.234375 C 6.523438 -5.878906 6.59375 -5.472656 6.5625 -5.015625 L 4.671875 -5.015625 C 4.679688 -5.316406 4.617188 -5.5625 4.484375 -5.75 C 4.347656 -5.9375 4.128906 -6.03125 3.828125 -6.03125 C 3.578125 -6.03125 3.367188 -5.960938 3.203125 -5.828125 C 3.035156 -5.703125 2.953125 -5.507812 2.953125 -5.25 C 2.953125 -5.050781 3.050781 -4.878906 3.25 -4.734375 C 3.457031 -4.597656 3.816406 -4.46875 4.328125 -4.34375 C 4.992188 -4.175781 5.472656 -3.921875 5.765625 -3.578125 C 6.066406 -3.242188 6.21875 -2.851562 6.21875 -2.40625 C 6.21875 -1.976562 6.128906 -1.601562 5.953125 -1.28125 C 5.773438 -0.96875 5.53125 -0.703125 5.21875 -0.484375 C 4.90625 -0.273438 4.550781 -0.117188 4.15625 -0.015625 C 3.757812 0.0859375 3.351562 0.140625 2.9375 0.140625 C 2.351562 0.140625 1.84375 0.0546875 1.40625 -0.109375 C 0.96875 -0.273438 0.632812 -0.53125 0.40625 -0.875 C 0.1875 -1.226562 0.101562 -1.675781 0.15625 -2.21875 L 2.046875 -2.21875 C 2.046875 -1.875 2.15625 -1.625 2.375 -1.46875 C 2.601562 -1.320312 2.859375 -1.25 3.140625 -1.25 C 3.421875 -1.25 3.664062 -1.316406 3.875 -1.453125 C 4.082031 -1.597656 4.1875 -1.785156 4.1875 -2.015625 C 4.1875 -2.179688 4.101562 -2.34375 3.9375 -2.5 C 3.78125 -2.65625 3.515625 -2.78125 3.140625 -2.875 C 2.429688 -3.0625 1.882812 -3.296875 1.5 -3.578125 C 1.113281 -3.867188 0.921875 -4.289062 0.921875 -4.84375 C 0.921875 -5.257812 1.003906 -5.625 1.171875 -5.9375 C 1.347656 -6.257812 1.582031 -6.53125 1.875 -6.75 C 2.164062 -6.96875 2.492188 -7.128906 2.859375 -7.234375 C 3.222656 -7.347656 3.601562 -7.40625 4 -7.40625 Z M 4 -7.40625 "/></g></g><g style="fill:#db4a2b;fill-opacity:1;"><g transform="translate(229.652891, 218.035298)"><path style="stroke:none" d="M 7.28125 -5.796875 L 4.921875 -5.796875 L 3.90625 0 L 2.015625 0 L 3.03125 -5.796875 L 0.65625 -5.796875 L 0.9375 -7.265625 L 7.546875 -7.265625 Z M 7.28125 -5.796875 "/></g></g><g style="fill:#db4a2b;fill-opacity:1;"><g transform="translate(235.9843, 218.035298)"><path style="stroke:none" d="M 4.765625 -1.890625 L 2.484375 -1.890625 L 1.5625 0 L -0.453125 0 L 3.375 -7.265625 L 5.828125 -7.265625 L 7.109375 0 L 5.046875 0 Z M 4.5625 -3.359375 L 4.25 -5.5 L 3.203125 -3.359375 Z M 4.5625 -3.359375 "/></g></g><g style="fill:#db4a2b;fill-opacity:1;"><g transform="translate(243.105855, 218.035298)"><path style="stroke:none" d="M 4.90625 -7.40625 C 5.601562 -7.40625 6.171875 -7.289062 6.609375 -7.0625 C 7.054688 -6.84375 7.378906 -6.539062 7.578125 -6.15625 C 7.785156 -5.78125 7.875 -5.351562 7.84375 -4.875 L 7.828125 -4.765625 L 5.9375 -4.765625 L 5.9375 -4.875 C 5.914062 -5.644531 5.515625 -6.03125 4.734375 -6.03125 C 4.367188 -6.03125 4.023438 -5.910156 3.703125 -5.671875 C 3.390625 -5.441406 3.132812 -5.101562 2.9375 -4.65625 C 2.75 -4.207031 2.65625 -3.648438 2.65625 -2.984375 C 2.65625 -2.554688 2.707031 -2.210938 2.8125 -1.953125 C 2.925781 -1.703125 3.078125 -1.519531 3.265625 -1.40625 C 3.460938 -1.300781 3.675781 -1.25 3.90625 -1.25 C 4.28125 -1.25 4.601562 -1.351562 4.875 -1.5625 C 5.144531 -1.78125 5.351562 -2.09375 5.5 -2.5 L 5.546875 -2.59375 L 7.4375 -2.59375 L 7.40625 -2.5 C 7.164062 -1.625 6.71875 -0.960938 6.0625 -0.515625 C 5.40625 -0.078125 4.617188 0.140625 3.703125 0.140625 C 3.097656 0.140625 2.566406 0.03125 2.109375 -0.1875 C 1.660156 -0.414062 1.304688 -0.753906 1.046875 -1.203125 C 0.785156 -1.648438 0.65625 -2.203125 0.65625 -2.859375 C 0.65625 -3.566406 0.769531 -4.203125 1 -4.765625 C 1.226562 -5.328125 1.539062 -5.804688 1.9375 -6.203125 C 2.332031 -6.597656 2.78125 -6.894531 3.28125 -7.09375 C 3.789062 -7.300781 4.332031 -7.40625 4.90625 -7.40625 Z M 4.90625 -7.40625 "/></g></g><g style="fill:#db4a2b;fill-opacity:1;"><g transform="translate(250.859513, 218.035298)"><path style="stroke:none" d="M 4.59375 -3.765625 L 7.0625 0 L 4.703125 0 L 3.125 -2.796875 L 2.5 -2.234375 L 2.109375 0 L 0.21875 0 L 1.5 -7.265625 L 3.40625 -7.265625 L 2.828125 -4.046875 L 6.171875 -7.265625 L 8.4375 -7.265625 Z M 4.59375 -3.765625 "/></g></g></g></svg>