<svg xmlns="http://www.w3.org/2000/svg" xmlns:xlink="http://www.w3.org/1999/xlink" zoomAndPan="magnify" preserveAspectRatio="xMidYMid meet" version="1.0" viewBox="-37.5 -37.5 450 450"><defs><clipPath id="2275e4d130"><path d="M 97.441406 7.382812 L 277.441406 7.382812 L 277.441406 367.382812 L 97.441406 367.382812 Z M 97.441406 7.382812 " clip-rule="nonzero"/></clipPath></defs><rect x="-37.5" width="450" fill="#ffffff" y="-37.499999" height="449.999989" fill-opacity="1"/><rect x="-37.5" width="450" fill="#ffffff" y="-37.499999" height="449.999989" fill-opacity="1"/><g clip-path="url(#2275e4d130)"><path fill="#ff914d" d="M 277.542969 244.796875 C 277.542969 294.445312 237.140625 334.851562 187.488281 334.851562 C 172.746094 334.851562 158.855469 331.21875 146.558594 324.90625 L 146.558594 284.828125 C 156.96875 295.460938 171.464844 302.097656 187.5 302.097656 C 219.101562 302.097656 244.800781 276.386719 244.800781 244.796875 C 244.800781 213.191406 219.089844 187.496094 187.5 187.496094 C 171.464844 187.496094 156.980469 194.132812 146.570312 204.773438 C 136.464844 215.113281 130.199219 229.238281 130.199219 244.808594 L 130.199219 367.605469 L 97.445312 367.605469 L 97.445312 72.894531 C 97.445312 67.234375 98.25 61.761719 99.597656 56.523438 C 106.898438 28.308594 132.480469 7.382812 162.929688 7.382812 C 199.050781 7.382812 228.417969 36.761719 228.417969 72.871094 C 228.417969 108.976562 199.039062 138.355469 162.929688 138.355469 C 157.273438 138.355469 151.800781 137.578125 146.558594 136.203125 L 146.558594 101.1875 C 151.378906 103.984375 156.96875 105.613281 162.929688 105.613281 C 180.992188 105.613281 195.675781 90.929688 195.675781 72.871094 C 195.675781 54.808594 180.992188 40.125 162.929688 40.125 C 150.84375 40.125 140.285156 46.730469 134.613281 56.5 C 131.816406 61.320312 130.1875 66.90625 130.1875 72.871094 L 130.1875 175.375 C 135.207031 171.226562 140.714844 167.675781 146.558594 164.671875 C 158.855469 158.359375 172.746094 154.726562 187.488281 154.726562 C 237.152344 154.738281 277.542969 195.132812 277.542969 244.796875 Z M 277.542969 244.796875 " fill-opacity="1" fill-rule="nonzero"/></g></svg>