<svg xmlns="http://www.w3.org/2000/svg" xmlns:xlink="http://www.w3.org/1999/xlink" zoomAndPan="magnify" preserveAspectRatio="xMidYMid meet" version="1.0" viewBox="-37.5 -37.5 450 450"><defs><clipPath id="47e583fa85"><path d="M 129.90625 72.3125 L 245.40625 72.3125 L 245.40625 302.5625 L 129.90625 302.5625 Z M 129.90625 72.3125 " clip-rule="nonzero"/></clipPath></defs><rect x="-37.5" width="450" fill="#ffffff" y="-37.499999" height="449.999989" fill-opacity="1"/><rect x="-37.5" width="450" fill="#ffffff" y="-37.499999" height="449.999989" fill-opacity="1"/><g clip-path="url(#47e583fa85)"><path fill="#c3922e" d="M 245.085938 224.140625 C 245.085938 255.894531 219.246094 281.734375 187.496094 281.734375 C 178.066406 281.734375 169.183594 279.410156 161.320312 275.375 L 161.320312 249.742188 C 167.976562 256.542969 177.25 260.785156 187.503906 260.785156 C 207.710938 260.785156 224.148438 244.34375 224.148438 224.140625 C 224.148438 203.933594 207.703125 187.496094 187.503906 187.496094 C 177.25 187.496094 167.984375 191.742188 161.328125 198.546875 C 154.863281 205.160156 150.859375 214.195312 150.859375 224.148438 L 150.859375 302.679688 L 129.910156 302.679688 L 129.910156 114.207031 C 129.910156 110.589844 130.425781 107.089844 131.289062 103.738281 C 135.957031 85.695312 152.316406 72.3125 171.789062 72.3125 C 194.890625 72.3125 213.667969 91.101562 213.667969 114.195312 C 213.667969 137.285156 194.882812 156.074219 171.789062 156.074219 C 168.171875 156.074219 164.671875 155.574219 161.320312 154.695312 L 161.320312 132.304688 C 164.402344 134.089844 167.976562 135.132812 171.789062 135.132812 C 183.339844 135.132812 192.730469 125.742188 192.730469 114.195312 C 192.730469 102.644531 183.339844 93.253906 171.789062 93.253906 C 164.0625 93.253906 157.308594 97.476562 153.679688 103.722656 C 151.894531 106.804688 150.851562 110.378906 150.851562 114.195312 L 150.851562 179.746094 C 154.058594 177.09375 157.582031 174.824219 161.320312 172.902344 C 169.183594 168.867188 178.066406 166.542969 187.496094 166.542969 C 219.253906 166.550781 245.085938 192.382812 245.085938 224.140625 Z M 245.085938 224.140625 " fill-opacity="1" fill-rule="nonzero"/></g></svg>