<svg xmlns="http://www.w3.org/2000/svg" xmlns:xlink="http://www.w3.org/1999/xlink" zoomAndPan="magnify" preserveAspectRatio="xMidYMid meet" version="1.0" viewBox="4.33 87.92 358.79 194.22"><defs><g/></defs><g fill="#000000" fill-opacity="1"><g transform="translate(0.0000045, 282.13499)"><g><path d="M 31.3125 -33.3125 L 31.3125 -160.90625 L 26.3125 -160.90625 C 18.988281 -160.90625 13.992188 -161.90625 11.328125 -163.90625 C 6.660156 -167.457031 4.328125 -172.007812 4.328125 -177.5625 C 4.328125 -183.78125 6.992188 -188.554688 12.328125 -191.890625 C 14.765625 -193.441406 19.425781 -194.21875 26.3125 -194.21875 L 110.609375 -194.21875 C 129.484375 -194.21875 145.082031 -189 157.40625 -178.5625 C 169.726562 -168.125 175.890625 -155.019531 175.890625 -139.25 C 175.890625 -125.039062 168.894531 -112.492188 154.90625 -101.609375 C 178.445312 -89.835938 190.21875 -73.734375 190.21875 -53.296875 C 190.21875 -37.304688 184.222656 -24.425781 172.234375 -14.65625 C 160.242188 -4.882812 144.363281 0 124.59375 0 L 26.3125 0 C 18.757812 0 13.765625 -1.109375 11.328125 -3.328125 C 6.660156 -6.660156 4.328125 -11.101562 4.328125 -16.65625 C 4.328125 -23.09375 6.992188 -27.867188 12.328125 -30.984375 C 14.765625 -32.535156 19.425781 -33.3125 26.3125 -33.3125 Z M 64.625 -113.9375 L 102.28125 -113.9375 C 114.269531 -113.9375 123.984375 -116.320312 131.421875 -121.09375 C 138.859375 -125.875 142.578125 -132.035156 142.578125 -139.578125 C 142.578125 -146.242188 139.578125 -151.460938 133.578125 -155.234375 C 127.585938 -159.015625 119.375 -160.90625 108.9375 -160.90625 L 64.625 -160.90625 Z M 64.625 -33.3125 L 122.921875 -33.3125 C 145.578125 -33.3125 156.90625 -39.304688 156.90625 -51.296875 C 156.90625 -60.179688 152.128906 -67.515625 142.578125 -73.296875 C 134.367188 -78.179688 123.378906 -80.625 109.609375 -80.625 L 64.625 -80.625 Z M 64.625 -33.3125 "/></g></g></g><g fill="#000000" fill-opacity="1"><g transform="translate(172.89851, 282.13499)"><g><path d="M 85.28125 -160.90625 L 85.28125 -33.3125 L 156.90625 -33.3125 L 156.90625 -63.96875 C 156.90625 -71.289062 157.90625 -76.394531 159.90625 -79.28125 C 163.238281 -83.945312 167.789062 -86.28125 173.5625 -86.28125 C 179.5625 -86.28125 184.335938 -83.613281 187.890625 -78.28125 C 189.441406 -76.0625 190.21875 -71.289062 190.21875 -63.96875 L 190.21875 0 L 32.984375 0 C 25.429688 0 20.429688 -1.109375 17.984375 -3.328125 C 13.328125 -6.660156 11 -11.101562 11 -16.65625 C 11 -23.09375 13.660156 -27.867188 18.984375 -30.984375 C 21.429688 -32.535156 26.097656 -33.3125 32.984375 -33.3125 L 51.96875 -33.3125 L 51.96875 -160.90625 L 32.984375 -160.90625 C 25.648438 -160.90625 20.648438 -161.90625 17.984375 -163.90625 C 13.328125 -167.457031 11 -172.007812 11 -177.5625 C 11 -184 13.660156 -188.773438 18.984375 -191.890625 C 21.429688 -193.441406 26.097656 -194.21875 32.984375 -194.21875 L 104.265625 -194.21875 C 111.378906 -194.21875 116.378906 -193.21875 119.265625 -191.21875 C 123.929688 -187.664062 126.265625 -183.113281 126.265625 -177.5625 C 126.265625 -171.125 123.597656 -166.347656 118.265625 -163.234375 C 115.816406 -161.679688 111.148438 -160.90625 104.265625 -160.90625 Z M 85.28125 -160.90625 "/></g></g></g></svg>